<svg width="124" height="65" viewBox="0 0 124 65" fill="none" xmlns="http://www.w3.org/2000/svg">
<path d="M25.201 10.6363C24.6385 4.14202 19.8828 0.460205 13.2862 0.460205C6.22938 0.460205 0.655518 5.16475 0.655518 13.9091C0.655518 22.615 6.07597 27.3579 13.2862 27.3579C20.9567 27.3579 24.843 22.0398 25.201 17.5909L17.9907 17.5398C17.6328 19.777 16.0476 21.1704 13.4396 21.1704C9.97512 21.1704 7.96802 18.7159 7.96802 13.9091C7.96802 9.35793 9.9112 6.64771 13.4907 6.64771C16.2265 6.64771 17.7862 8.2585 17.9907 10.6363H25.201Z" fill="#2A6FAF"/>
<path d="M28.528 27H35.5849V16.7727C35.5849 14.5227 37.1317 13.0398 39.2155 13.0398C39.9442 13.0398 41.1204 13.1548 41.8235 13.3977V7.3764C41.261 7.21021 40.6474 7.10793 40.0337 7.10793C37.9371 7.10793 36.3008 8.3352 35.5849 11.0966H35.3803V7.36361H28.528V27Z" fill="#2A6FAF"/>
<path d="M49.0305 34.3636C53.9652 34.3636 56.2791 31.8835 57.3657 28.6363L64.5248 7.36361H57.1101L53.8885 20.9659H53.6839L50.5135 7.36361H43.1498L50.0532 27.8693L49.8998 28.2273C49.4268 29.3139 48.0589 29.2755 46.3203 28.6619L44.7862 33.6733C45.8856 34.1079 47.4069 34.3636 49.0305 34.3636Z" fill="#2A6FAF"/>
<path d="M66.5319 34.3636H73.5888V23.7784H73.691C74.5092 25.7727 76.4013 27.2557 79.1626 27.2557C83.3558 27.2557 86.8842 23.9829 86.8842 17.1818C86.8842 10.0738 83.1001 7.10793 79.2138 7.10793C76.299 7.10793 74.4581 8.79543 73.691 10.7898H73.5376V7.36361H66.5319V34.3636ZM73.4353 17.1818C73.4353 14.267 74.6115 12.5284 76.5547 12.5284C78.4978 12.5284 79.6228 14.267 79.6228 17.1818C79.6228 20.0966 78.4978 21.8352 76.5547 21.8352C74.6115 21.8352 73.4353 20.0454 73.4353 17.1818Z" fill="#2A6FAF"/>
<path d="M101.551 7.36361H98.1758V2.65907H91.1189V7.36361H88.6133V12.4773H91.1189V21.3494C91.0678 25.4659 93.6118 27.5497 98.4826 27.2812C100.081 27.1917 101.27 26.8594 101.909 26.6676L100.886 21.7074C100.618 21.7713 99.9272 21.9119 99.5053 21.9119C98.5848 21.9119 98.1758 21.5028 98.1758 20.6846V12.4773H101.551V7.36361Z" fill="#2A6FAF"/>
<path d="M113.68 27.3579C120.072 27.3579 123.856 23.267 123.856 17.2329C123.856 11.1988 120.072 7.10793 113.68 7.10793C107.288 7.10793 103.504 11.1988 103.504 17.2329C103.504 23.267 107.288 27.3579 113.68 27.3579ZM113.731 22.142C111.839 22.142 110.714 20.2628 110.714 17.1818C110.714 14.1008 111.839 12.2216 113.731 12.2216C115.521 12.2216 116.646 14.1008 116.646 17.1818C116.646 20.2628 115.521 22.142 113.731 22.142Z" fill="#2A6FAF"/>
<path d="M2.45017 57H9.16324V48.838H11.4814L15.828 57H23.1206L18.0979 47.7755C20.73 46.5078 22.2996 44.1051 22.2996 40.6761C22.2996 35.4119 18.6171 32.2727 13.1235 32.2727H2.45017V57ZM9.16324 43.6221V37.6335H11.5297C13.8841 37.6335 15.2968 38.5511 15.2968 40.6761C15.2968 42.789 13.8841 43.6221 11.5297 43.6221H9.16324Z" fill="#2A6FAF"/>
<path d="M30.4253 57.2898C32.8401 57.2898 34.6632 56.4687 35.7861 54.392H35.931V57H42.1611V44.2983C42.1611 40.8693 38.9132 38.213 33.6128 38.213C28.0709 38.213 25.3422 41.1108 25.1128 44.4915H31.2463C31.4033 43.3444 32.2485 42.8011 33.5162 42.8011C34.6753 42.8011 35.4963 43.3324 35.4963 44.2983V44.3466C35.4963 45.4211 34.3131 45.7592 31.198 45.9886C27.3706 46.2663 24.3884 47.8118 24.3884 51.8807C24.3884 55.5753 26.8756 57.2898 30.4253 57.2898ZM32.5986 53.088C31.4637 53.088 30.6668 52.5326 30.6668 51.4943C30.6668 50.5405 31.3429 49.804 32.8884 49.5625C33.9509 49.3934 34.8444 49.1761 35.5446 48.8863V50.4318C35.5446 52.1221 34.1078 53.088 32.5986 53.088Z" fill="#2A6FAF"/>
<path d="M52.0104 46.5682C52.0224 44.7329 53.0608 43.6221 54.7149 43.6221C56.3932 43.6221 57.3832 44.7329 57.3712 46.5682V57H64.0359V45.1676C64.048 41.1349 61.5004 38.213 57.5643 38.213C54.8356 38.213 52.6744 39.6378 51.8655 41.9801H51.6723V38.4545H45.3456V57H52.0104V46.5682Z" fill="#2A6FAF"/>
<path d="M76.2607 64.3409C82.1286 64.3409 86.0164 61.6605 86.0164 56.9517V38.4545H79.3516V41.6903H79.2067C78.4823 39.8068 76.7437 38.213 73.9908 38.213C70.3204 38.213 66.7465 41.0142 66.7465 47.7273C66.7465 54.1505 70.0789 56.7585 74.0391 56.7585C76.5505 56.7585 78.5306 55.696 79.255 53.8125H79.4482V56.9517C79.4482 59.1371 78.1805 59.8494 76.4539 59.8494C74.9205 59.8494 73.7977 59.3906 73.6045 58.2074H67.1812C67.4347 61.7812 70.6826 64.3409 76.2607 64.3409ZM76.5022 52.0255C74.667 52.0255 73.6045 50.4801 73.6045 47.7273C73.6045 44.9744 74.667 43.3324 76.5022 43.3324C78.3374 43.3324 79.4482 44.9744 79.4482 47.7273C79.4482 50.4318 78.3374 52.0255 76.5022 52.0255Z" fill="#2A6FAF"/>
<path d="M98.2925 57.338C103.436 57.338 106.744 54.875 107.372 51.0113H101.287C100.9 52.0618 99.8017 52.6534 98.4374 52.6534C96.4573 52.6534 95.2982 51.3494 95.2982 49.5625V49.2727H107.372V47.7273C107.372 41.8231 103.75 38.213 98.1476 38.213C92.4005 38.213 88.73 42.0284 88.73 47.7755C88.73 53.7763 92.3522 57.338 98.2925 57.338ZM95.2982 45.6023C95.3344 43.9964 96.6625 42.8977 98.2925 42.8977C99.9466 42.8977 101.202 44.0085 101.239 45.6023H95.2982Z" fill="#2A6FAF"/>
<path d="M110.092 57H116.756V47.3409C116.756 45.2159 118.217 43.8153 120.185 43.8153C120.874 43.8153 121.984 43.924 122.649 44.1534V38.4666C122.117 38.3096 121.538 38.213 120.958 38.213C118.978 38.213 117.433 39.3721 116.756 41.9801H116.563V38.4545H110.092V57Z" fill="#2A6FAF"/>
</svg>
